<svg width="16" height="16" viewBox="0 0 16 16" fill="none" xmlns="http://www.w3.org/2000/svg">
<path d="M5.5 4.5H13.5M5.5 8H13.5M5.5 11.5H13.5M2.5 4.5H2.50467V4.50533H2.5V4.5ZM2.75 4.5C2.75 4.5663 2.72366 4.62989 2.67678 4.67678C2.62989 4.72366 2.5663 4.75 2.5 4.75C2.4337 4.75 2.37011 4.72366 2.32322 4.67678C2.27634 4.62989 2.25 4.5663 2.25 4.5C2.25 4.4337 2.27634 4.37011 2.32322 4.32322C2.37011 4.27634 2.4337 4.25 2.5 4.25C2.5663 4.25 2.62989 4.27634 2.67678 4.32322C2.72366 4.37011 2.75 4.4337 2.75 4.5ZM2.5 8H2.50467V8.00533H2.5V8ZM2.75 8C2.75 8.0663 2.72366 8.12989 2.67678 8.17678C2.62989 8.22366 2.5663 8.25 2.5 8.25C2.4337 8.25 2.37011 8.22366 2.32322 8.17678C2.27634 8.12989 2.25 8.0663 2.25 8C2.25 7.9337 2.27634 7.87011 2.32322 7.82322C2.37011 7.77634 2.4337 7.75 2.5 7.75C2.5663 7.75 2.62989 7.77634 2.67678 7.82322C2.72366 7.87011 2.75 7.9337 2.75 8ZM2.5 11.5H2.50467V11.5053H2.5V11.5ZM2.75 11.5C2.75 11.5663 2.72366 11.6299 2.67678 11.6768C2.62989 11.7237 2.5663 11.75 2.5 11.75C2.4337 11.75 2.37011 11.7237 2.32322 11.6768C2.27634 11.6299 2.25 11.5663 2.25 11.5C2.25 11.4337 2.27634 11.3701 2.32322 11.3232C2.37011 11.2763 2.4337 11.25 2.5 11.25C2.5663 11.25 2.62989 11.2763 2.67678 11.3232C2.72366 11.3701 2.75 11.4337 2.75 11.5Z" stroke="#2B2B2B" stroke-linecap="round" stroke-linejoin="round"/>
</svg>
