<svg width="24" height="32" viewBox="0 0 24 32" fill="none" xmlns="http://www.w3.org/2000/svg">
<g clip-path="url(#clip0_1_598)">
<path fill-rule="evenodd" clip-rule="evenodd" d="M4.49399 16.938V31.22C4.49399 31.325 4.63999 31.378 4.72599 31.304L11.171 25.661L17.615 31.304C17.701 31.378 17.848 31.325 17.848 31.22V16.938H4.49399Z" fill="#36B37E"/>
<path d="M23.262 11.0551C23.3782 10.8225 23.4255 10.5616 23.3982 10.303C23.3709 10.0445 23.2702 9.79919 23.108 9.59606L22.306 8.59105C22.1001 8.33333 21.9949 8.00957 22.01 7.68006L22.068 6.39506C22.0799 6.13546 22.0172 5.87788 21.8873 5.65281C21.7574 5.42773 21.5657 5.24459 21.335 5.12506L20.193 4.53306C19.9002 4.38118 19.6724 4.12818 19.552 3.82106L19.082 2.62406C18.9874 2.38197 18.8254 2.17205 18.6152 2.01912C18.405 1.86619 18.1555 1.77663 17.896 1.76106L16.612 1.68506C16.2827 1.66548 15.9717 1.52688 15.737 1.29506L14.82 0.392055C14.635 0.20936 14.4015 0.0835285 14.1471 0.0294719C13.8928 -0.0245846 13.6283 -0.00460087 13.385 0.0870553L12.182 0.540055C11.873 0.656055 11.532 0.656055 11.224 0.540055L10.02 0.0870553C9.77667 -0.00460087 9.51217 -0.0245846 9.25784 0.0294719C9.00351 0.0835285 8.77 0.20936 8.58499 0.392055L7.66899 1.29506C7.43399 1.52706 7.12299 1.66506 6.79399 1.68506L5.50999 1.76006C4.97999 1.79206 4.51699 2.12806 4.32299 2.62306L3.85399 3.82006C3.73376 4.12728 3.50595 4.38033 3.21299 4.53206L2.07099 5.12406C1.59999 5.36806 1.31299 5.86406 1.33699 6.39406L1.39599 7.67906C1.41099 8.00906 1.30599 8.33206 1.09999 8.59006L0.296994 9.59606C0.13472 9.79939 0.0340744 10.0449 0.00696068 10.3037C-0.0201531 10.5624 0.0273994 10.8235 0.143994 11.0561L0.719994 12.2061C0.867994 12.5001 0.902994 12.8391 0.819994 13.1581L0.495994 14.4031C0.43054 14.6546 0.438411 14.9196 0.518679 15.1667C0.598948 15.4139 0.748261 15.633 0.948994 15.7981L1.94299 16.6141C2.19799 16.8241 2.36799 17.1191 2.42299 17.4441L2.63299 18.7131C2.71899 19.2371 3.10299 19.6631 3.61299 19.8031L4.85299 20.1451C5.17199 20.2321 5.44699 20.4321 5.62899 20.7081L6.33699 21.7821C6.48005 21.9991 6.68229 22.1705 6.91977 22.2762C7.15726 22.3818 7.42004 22.4171 7.67699 22.3781L8.94899 22.1861C9.27499 22.1361 9.60799 22.2081 9.88599 22.3861L10.969 23.0781C11.416 23.3641 11.989 23.3641 12.436 23.0781L13.52 22.3851C13.798 22.2081 14.13 22.1371 14.457 22.1861L15.729 22.3781C15.9859 22.4169 16.2486 22.3814 16.4861 22.2758C16.7235 22.1702 16.9258 21.9989 17.069 21.7821L17.777 20.7081C17.958 20.4321 18.234 20.2321 18.552 20.1451L19.792 19.8031C20.0428 19.7343 20.2685 19.595 20.4426 19.4018C20.6166 19.2086 20.7316 18.9696 20.774 18.7131L20.984 17.4441C21.0377 17.1184 21.2079 16.8234 21.463 16.6141L22.457 15.7981C22.6579 15.6331 22.8074 15.4141 22.8877 15.1669C22.9679 14.9196 22.9757 14.6546 22.91 14.4031L22.586 13.1581C22.5026 12.8388 22.5381 12.5001 22.686 12.2051L23.262 11.0551Z" fill="#F5A250"/>
<mask id="mask0_1_598" style="mask-type:luminance" maskUnits="userSpaceOnUse" x="-1" y="-1" width="25" height="25">
<path d="M23.262 11.0551C23.3782 10.8225 23.4255 10.5616 23.3982 10.303C23.3709 10.0445 23.2702 9.79919 23.108 9.59606L22.306 8.59105C22.1001 8.33333 21.9949 8.00957 22.01 7.68006L22.068 6.39506C22.0799 6.13546 22.0172 5.87788 21.8873 5.65281C21.7574 5.42773 21.5657 5.24459 21.335 5.12506L20.193 4.53306C19.9002 4.38118 19.6724 4.12818 19.552 3.82106L19.082 2.62406C18.9874 2.38197 18.8254 2.17205 18.6152 2.01912C18.405 1.86619 18.1555 1.77663 17.896 1.76106L16.612 1.68506C16.2827 1.66548 15.9717 1.52688 15.737 1.29506L14.82 0.392055C14.635 0.20936 14.4015 0.0835285 14.1471 0.0294719C13.8928 -0.0245846 13.6283 -0.00460087 13.385 0.0870553L12.182 0.540055C11.873 0.656055 11.532 0.656055 11.224 0.540055L10.02 0.0870553C9.77667 -0.00460087 9.51217 -0.0245846 9.25784 0.0294719C9.00351 0.0835285 8.77 0.20936 8.58499 0.392055L7.66899 1.29506C7.43399 1.52706 7.12299 1.66506 6.79399 1.68506L5.50999 1.76006C4.97999 1.79206 4.51699 2.12806 4.32299 2.62306L3.85399 3.82006C3.73376 4.12728 3.50595 4.38033 3.21299 4.53206L2.07099 5.12406C1.59999 5.36806 1.31299 5.86406 1.33699 6.39406L1.39599 7.67906C1.41099 8.00906 1.30599 8.33206 1.09999 8.59006L0.296994 9.59606C0.13472 9.79939 0.0340744 10.0449 0.00696068 10.3037C-0.0201531 10.5624 0.0273994 10.8235 0.143994 11.0561L0.719994 12.2061C0.867994 12.5001 0.902994 12.8391 0.819994 13.1581L0.495994 14.4031C0.43054 14.6546 0.438411 14.9196 0.518679 15.1667C0.598948 15.4139 0.748261 15.633 0.948994 15.7981L1.94299 16.6141C2.19799 16.8241 2.36799 17.1191 2.42299 17.4441L2.63299 18.7131C2.71899 19.2371 3.10299 19.6631 3.61299 19.8031L4.85299 20.1451C5.17199 20.2321 5.44699 20.4321 5.62899 20.7081L6.33699 21.7821C6.48005 21.9991 6.68229 22.1705 6.91977 22.2762C7.15726 22.3818 7.42004 22.4171 7.67699 22.3781L8.94899 22.1861C9.27499 22.1361 9.60799 22.2081 9.88599 22.3861L10.969 23.0781C11.416 23.3641 11.989 23.3641 12.436 23.0781L13.52 22.3851C13.798 22.2081 14.13 22.1371 14.457 22.1861L15.729 22.3781C15.9859 22.4169 16.2486 22.3814 16.4861 22.2758C16.7235 22.1702 16.9258 21.9989 17.069 21.7821L17.777 20.7081C17.958 20.4321 18.234 20.2321 18.552 20.1451L19.792 19.8031C20.0428 19.7343 20.2685 19.595 20.4426 19.4018C20.6166 19.2086 20.7316 18.9696 20.774 18.7131L20.984 17.4441C21.0377 17.1184 21.2079 16.8234 21.463 16.6141L22.457 15.7981C22.6579 15.6331 22.8074 15.4141 22.8877 15.1669C22.9679 14.9196 22.9757 14.6546 22.91 14.4031L22.586 13.1581C22.5026 12.8388 22.5381 12.5001 22.686 12.2051L23.262 11.0551Z" fill="white"/>
</mask>
<g mask="url(#mask0_1_598)">
<path opacity="0.25" fill-rule="evenodd" clip-rule="evenodd" d="M3.99969 0.735352L24.8077 -18.0003L42.8743 2.0646L22.0662 20.8003L3.99969 0.735352Z" fill="white"/>
</g>
<mask id="mask1_1_598" style="mask-type:luminance" maskUnits="userSpaceOnUse" x="-1" y="-1" width="25" height="25">
<path d="M23.262 11.0551C23.3782 10.8225 23.4255 10.5616 23.3982 10.303C23.3709 10.0445 23.2702 9.79919 23.108 9.59606L22.306 8.59105C22.1001 8.33333 21.9949 8.00957 22.01 7.68006L22.068 6.39506C22.0799 6.13546 22.0172 5.87788 21.8873 5.65281C21.7574 5.42773 21.5657 5.24459 21.335 5.12506L20.193 4.53306C19.9002 4.38118 19.6724 4.12818 19.552 3.82106L19.082 2.62406C18.9874 2.38197 18.8254 2.17205 18.6152 2.01912C18.405 1.86619 18.1555 1.77663 17.896 1.76106L16.612 1.68506C16.2827 1.66548 15.9717 1.52688 15.737 1.29506L14.82 0.392055C14.635 0.20936 14.4015 0.0835285 14.1471 0.0294719C13.8928 -0.0245846 13.6283 -0.00460087 13.385 0.0870553L12.182 0.540055C11.873 0.656055 11.532 0.656055 11.224 0.540055L10.02 0.0870553C9.77667 -0.00460087 9.51217 -0.0245846 9.25784 0.0294719C9.00351 0.0835285 8.77 0.20936 8.58499 0.392055L7.66899 1.29506C7.43399 1.52706 7.12299 1.66506 6.79399 1.68506L5.50999 1.76006C4.97999 1.79206 4.51699 2.12806 4.32299 2.62306L3.85399 3.82006C3.73376 4.12728 3.50595 4.38033 3.21299 4.53206L2.07099 5.12406C1.59999 5.36806 1.31299 5.86406 1.33699 6.39406L1.39599 7.67906C1.41099 8.00906 1.30599 8.33206 1.09999 8.59006L0.296994 9.59606C0.13472 9.79939 0.0340744 10.0449 0.00696068 10.3037C-0.0201531 10.5624 0.0273994 10.8235 0.143994 11.0561L0.719994 12.2061C0.867994 12.5001 0.902994 12.8391 0.819994 13.1581L0.495994 14.4031C0.43054 14.6546 0.438411 14.9196 0.518679 15.1667C0.598948 15.4139 0.748261 15.633 0.948994 15.7981L1.94299 16.6141C2.19799 16.8241 2.36799 17.1191 2.42299 17.4441L2.63299 18.7131C2.71899 19.2371 3.10299 19.6631 3.61299 19.8031L4.85299 20.1451C5.17199 20.2321 5.44699 20.4321 5.62899 20.7081L6.33699 21.7821C6.48005 21.9991 6.68229 22.1705 6.91977 22.2762C7.15726 22.3818 7.42004 22.4171 7.67699 22.3781L8.94899 22.1861C9.27499 22.1361 9.60799 22.2081 9.88599 22.3861L10.969 23.0781C11.416 23.3641 11.989 23.3641 12.436 23.0781L13.52 22.3851C13.798 22.2081 14.13 22.1371 14.457 22.1861L15.729 22.3781C15.9859 22.4169 16.2486 22.3814 16.4861 22.2758C16.7235 22.1702 16.9258 21.9989 17.069 21.7821L17.777 20.7081C17.958 20.4321 18.234 20.2321 18.552 20.1451L19.792 19.8031C20.0428 19.7343 20.2685 19.595 20.4426 19.4018C20.6166 19.2086 20.7316 18.9696 20.774 18.7131L20.984 17.4441C21.0377 17.1184 21.2079 16.8234 21.463 16.6141L22.457 15.7981C22.6579 15.6331 22.8074 15.4141 22.8877 15.1669C22.9679 14.9196 22.9757 14.6546 22.91 14.4031L22.586 13.1581C22.5026 12.8388 22.5381 12.5001 22.686 12.2051L23.262 11.0551Z" fill="white"/>
</mask>
<g mask="url(#mask1_1_598)">
<path d="M12.8153 17.1491C12.1122 17.1491 11.4854 17.0284 10.935 16.7869C10.3881 16.5455 9.95313 16.2099 9.62997 15.7802C9.31037 15.3469 9.13636 14.8445 9.10795 14.2727H10.4503C10.4787 14.6243 10.5994 14.9279 10.8125 15.1836C11.0256 15.4357 11.3043 15.631 11.6488 15.7695C11.9933 15.908 12.375 15.9773 12.794 15.9773C13.2628 15.9773 13.6783 15.8956 14.0405 15.7322C14.4027 15.5689 14.6868 15.3416 14.8928 15.0504C15.0987 14.7592 15.2017 14.4219 15.2017 14.0384C15.2017 13.6371 15.1023 13.2837 14.9034 12.9783C14.7045 12.6694 14.4134 12.4279 14.0298 12.2539C13.6463 12.0799 13.1776 11.9929 12.6236 11.9929H11.75V10.821H12.6236C13.0568 10.821 13.4368 10.7429 13.7635 10.5866C14.0938 10.4304 14.3512 10.2102 14.5359 9.92614C14.7241 9.64205 14.8182 9.30824 14.8182 8.92472C14.8182 8.5554 14.7365 8.23402 14.5732 7.96058C14.4098 7.68714 14.179 7.47408 13.8807 7.32138C13.5859 7.16868 13.2379 7.09233 12.8366 7.09233C12.4602 7.09233 12.1051 7.16158 11.7713 7.30007C11.4411 7.43501 11.1712 7.6321 10.9616 7.89134C10.7521 8.14702 10.6385 8.45597 10.6207 8.81818H9.34233C9.36364 8.24645 9.53587 7.74574 9.85902 7.31605C10.1822 6.88281 10.6048 6.54545 11.1268 6.30398C11.6523 6.0625 12.2294 5.94176 12.858 5.94176C13.5327 5.94176 14.1115 6.07848 14.5945 6.35192C15.0774 6.6218 15.4485 6.97869 15.7077 7.42259C15.967 7.86648 16.0966 8.34588 16.0966 8.8608C16.0966 9.47514 15.935 9.99893 15.6119 10.4322C15.2923 10.8654 14.8572 11.1655 14.3068 11.3324V11.4176C14.9957 11.5312 15.5337 11.8242 15.9208 12.2965C16.3079 12.7653 16.5014 13.3459 16.5014 14.0384C16.5014 14.6314 16.3398 15.1641 16.0167 15.6364C15.6971 16.1051 15.2603 16.4744 14.7063 16.7443C14.1523 17.0142 13.522 17.1491 12.8153 17.1491Z" fill="#333333"/>
</g>
</g>
<defs>
<clipPath id="clip0_1_598">
<rect width="24" height="32" fill="white"/>
</clipPath>
</defs>
</svg>
