<svg width="24" height="32" viewBox="0 0 24 32" fill="none" xmlns="http://www.w3.org/2000/svg">
<g clip-path="url(#clip0_1_463)">
<g clip-path="url(#clip1_1_463)">
<g clip-path="url(#clip2_1_463)">
<path fill-rule="evenodd" clip-rule="evenodd" d="M4.49402 16.938V31.22C4.49402 31.325 4.64002 31.378 4.72602 31.304L11.171 25.661L17.615 31.304C17.701 31.378 17.848 31.325 17.848 31.22V16.938H4.49402Z" fill="#23A5D9"/>
<path d="M23.262 11.0551C23.3783 10.8225 23.4255 10.5616 23.3983 10.303C23.371 10.0445 23.2703 9.79919 23.108 9.59606L22.306 8.59105C22.1001 8.33333 21.9949 8.00957 22.01 7.68006L22.068 6.39506C22.08 6.13546 22.0173 5.87788 21.8873 5.65281C21.7574 5.42773 21.5658 5.24459 21.335 5.12506L20.193 4.53306C19.9002 4.38118 19.6724 4.12818 19.552 3.82106L19.082 2.62406C18.9874 2.38197 18.8254 2.17205 18.6152 2.01912C18.4051 1.86619 18.1555 1.77663 17.896 1.76106L16.612 1.68506C16.2827 1.66548 15.9717 1.52688 15.737 1.29506L14.82 0.392055C14.635 0.20936 14.4015 0.0835285 14.1472 0.0294719C13.8928 -0.0245846 13.6283 -0.00460087 13.385 0.0870553L12.182 0.540055C11.873 0.656055 11.532 0.656055 11.224 0.540055L10.02 0.0870553C9.7767 -0.00460087 9.5122 -0.0245846 9.25787 0.0294719C9.00354 0.0835285 8.77003 0.20936 8.58502 0.392055L7.66902 1.29506C7.43402 1.52706 7.12302 1.66506 6.79402 1.68506L5.51002 1.76006C4.98002 1.79206 4.51702 2.12806 4.32302 2.62306L3.85402 3.82006C3.73379 4.12728 3.50598 4.38033 3.21302 4.53206L2.07102 5.12406C1.60002 5.36806 1.31302 5.86406 1.33702 6.39406L1.39602 7.67906C1.41102 8.00906 1.30602 8.33206 1.10002 8.59006L0.297024 9.59606C0.134751 9.79939 0.034105 10.0449 0.0069912 10.3037C-0.0201226 10.5624 0.0274299 10.8235 0.144024 11.0561L0.720024 12.2061C0.868024 12.5001 0.903024 12.8391 0.820024 13.1581L0.496024 14.4031C0.43057 14.6546 0.438442 14.9196 0.51871 15.1667C0.598978 15.4139 0.748292 15.633 0.949024 15.7981L1.94302 16.6141C2.19802 16.8241 2.36802 17.1191 2.42302 17.4441L2.63302 18.7131C2.71902 19.2371 3.10302 19.6631 3.61302 19.8031L4.85302 20.1451C5.17202 20.2321 5.44702 20.4321 5.62902 20.7081L6.33702 21.7821C6.48008 21.9991 6.68232 22.1705 6.9198 22.2762C7.15729 22.3818 7.42007 22.4171 7.67702 22.3781L8.94902 22.1861C9.27502 22.1361 9.60802 22.2081 9.88602 22.3861L10.969 23.0781C11.416 23.3641 11.989 23.3641 12.436 23.0781L13.52 22.3851C13.798 22.2081 14.13 22.1371 14.457 22.1861L15.729 22.3781C15.986 22.4169 16.2487 22.3814 16.4861 22.2758C16.7235 22.1702 16.9258 21.9989 17.069 21.7821L17.777 20.7081C17.958 20.4321 18.234 20.2321 18.552 20.1451L19.792 19.8031C20.0428 19.7343 20.2686 19.595 20.4426 19.4018C20.6167 19.2086 20.7317 18.9696 20.774 18.7131L20.984 17.4441C21.0377 17.1184 21.2079 16.8234 21.463 16.6141L22.457 15.7981C22.658 15.6331 22.8074 15.4141 22.8877 15.1669C22.968 14.9196 22.9757 14.6546 22.91 14.4031L22.586 13.1581C22.5026 12.8388 22.5382 12.5001 22.686 12.2051L23.262 11.0551Z" fill="#DBDBDB"/>
<mask id="mask0_1_463" style="mask-type:luminance" maskUnits="userSpaceOnUse" x="-1" y="-1" width="25" height="25">
<path d="M23.262 11.0551C23.3783 10.8225 23.4255 10.5616 23.3983 10.303C23.371 10.0445 23.2703 9.79919 23.108 9.59606L22.306 8.59105C22.1001 8.33333 21.9949 8.00957 22.01 7.68006L22.068 6.39506C22.08 6.13546 22.0173 5.87788 21.8873 5.65281C21.7574 5.42773 21.5658 5.24459 21.335 5.12506L20.193 4.53306C19.9002 4.38118 19.6724 4.12818 19.552 3.82106L19.082 2.62406C18.9874 2.38197 18.8254 2.17205 18.6152 2.01912C18.4051 1.86619 18.1555 1.77663 17.896 1.76106L16.612 1.68506C16.2827 1.66548 15.9717 1.52688 15.737 1.29506L14.82 0.392055C14.635 0.20936 14.4015 0.0835285 14.1472 0.0294719C13.8928 -0.0245846 13.6283 -0.00460087 13.385 0.0870553L12.182 0.540055C11.873 0.656055 11.532 0.656055 11.224 0.540055L10.02 0.0870553C9.7767 -0.00460087 9.5122 -0.0245846 9.25787 0.0294719C9.00354 0.0835285 8.77003 0.20936 8.58502 0.392055L7.66902 1.29506C7.43402 1.52706 7.12302 1.66506 6.79402 1.68506L5.51002 1.76006C4.98002 1.79206 4.51702 2.12806 4.32302 2.62306L3.85402 3.82006C3.73379 4.12728 3.50598 4.38033 3.21302 4.53206L2.07102 5.12406C1.60002 5.36806 1.31302 5.86406 1.33702 6.39406L1.39602 7.67906C1.41102 8.00906 1.30602 8.33206 1.10002 8.59006L0.297024 9.59606C0.134751 9.79939 0.034105 10.0449 0.0069912 10.3037C-0.0201226 10.5624 0.0274299 10.8235 0.144024 11.0561L0.720024 12.2061C0.868024 12.5001 0.903024 12.8391 0.820024 13.1581L0.496024 14.4031C0.43057 14.6546 0.438442 14.9196 0.51871 15.1667C0.598978 15.4139 0.748292 15.633 0.949024 15.7981L1.94302 16.6141C2.19802 16.8241 2.36802 17.1191 2.42302 17.4441L2.63302 18.7131C2.71902 19.2371 3.10302 19.6631 3.61302 19.8031L4.85302 20.1451C5.17202 20.2321 5.44702 20.4321 5.62902 20.7081L6.33702 21.7821C6.48008 21.9991 6.68232 22.1705 6.9198 22.2762C7.15729 22.3818 7.42007 22.4171 7.67702 22.3781L8.94902 22.1861C9.27502 22.1361 9.60802 22.2081 9.88602 22.3861L10.969 23.0781C11.416 23.3641 11.989 23.3641 12.436 23.0781L13.52 22.3851C13.798 22.2081 14.13 22.1371 14.457 22.1861L15.729 22.3781C15.986 22.4169 16.2487 22.3814 16.4861 22.2758C16.7235 22.1702 16.9258 21.9989 17.069 21.7821L17.777 20.7081C17.958 20.4321 18.234 20.2321 18.552 20.1451L19.792 19.8031C20.0428 19.7343 20.2686 19.595 20.4426 19.4018C20.6167 19.2086 20.7317 18.9696 20.774 18.7131L20.984 17.4441C21.0377 17.1184 21.2079 16.8234 21.463 16.6141L22.457 15.7981C22.658 15.6331 22.8074 15.4141 22.8877 15.1669C22.968 14.9196 22.9757 14.6546 22.91 14.4031L22.586 13.1581C22.5026 12.8388 22.5382 12.5001 22.686 12.2051L23.262 11.0551Z" fill="white"/>
</mask>
<g mask="url(#mask0_1_463)">
<path opacity="0.4" fill-rule="evenodd" clip-rule="evenodd" d="M3.99976 2.73535L24.8078 -16.0003L42.8743 4.0646L22.0663 22.8003L3.99976 2.73535Z" fill="white"/>
</g>
<mask id="mask1_1_463" style="mask-type:luminance" maskUnits="userSpaceOnUse" x="-1" y="-1" width="25" height="25">
<path d="M23.262 11.0551C23.3783 10.8225 23.4255 10.5616 23.3983 10.303C23.371 10.0445 23.2703 9.79919 23.108 9.59606L22.306 8.59105C22.1001 8.33333 21.9949 8.00957 22.01 7.68006L22.068 6.39506C22.08 6.13546 22.0173 5.87788 21.8873 5.65281C21.7574 5.42773 21.5658 5.24459 21.335 5.12506L20.193 4.53306C19.9002 4.38118 19.6724 4.12818 19.552 3.82106L19.082 2.62406C18.9874 2.38197 18.8254 2.17205 18.6152 2.01912C18.4051 1.86619 18.1555 1.77663 17.896 1.76106L16.612 1.68506C16.2827 1.66548 15.9717 1.52688 15.737 1.29506L14.82 0.392055C14.635 0.20936 14.4015 0.0835285 14.1472 0.0294719C13.8928 -0.0245846 13.6283 -0.00460087 13.385 0.0870553L12.182 0.540055C11.873 0.656055 11.532 0.656055 11.224 0.540055L10.02 0.0870553C9.7767 -0.00460087 9.5122 -0.0245846 9.25787 0.0294719C9.00354 0.0835285 8.77003 0.20936 8.58502 0.392055L7.66902 1.29506C7.43402 1.52706 7.12302 1.66506 6.79402 1.68506L5.51002 1.76006C4.98002 1.79206 4.51702 2.12806 4.32302 2.62306L3.85402 3.82006C3.73379 4.12728 3.50598 4.38033 3.21302 4.53206L2.07102 5.12406C1.60002 5.36806 1.31302 5.86406 1.33702 6.39406L1.39602 7.67906C1.41102 8.00906 1.30602 8.33206 1.10002 8.59006L0.297024 9.59606C0.134751 9.79939 0.034105 10.0449 0.0069912 10.3037C-0.0201226 10.5624 0.0274299 10.8235 0.144024 11.0561L0.720024 12.2061C0.868024 12.5001 0.903024 12.8391 0.820024 13.1581L0.496024 14.4031C0.43057 14.6546 0.438442 14.9196 0.51871 15.1667C0.598978 15.4139 0.748292 15.633 0.949024 15.7981L1.94302 16.6141C2.19802 16.8241 2.36802 17.1191 2.42302 17.4441L2.63302 18.7131C2.71902 19.2371 3.10302 19.6631 3.61302 19.8031L4.85302 20.1451C5.17202 20.2321 5.44702 20.4321 5.62902 20.7081L6.33702 21.7821C6.48008 21.9991 6.68232 22.1705 6.9198 22.2762C7.15729 22.3818 7.42007 22.4171 7.67702 22.3781L8.94902 22.1861C9.27502 22.1361 9.60802 22.2081 9.88602 22.3861L10.969 23.0781C11.416 23.3641 11.989 23.3641 12.436 23.0781L13.52 22.3851C13.798 22.2081 14.13 22.1371 14.457 22.1861L15.729 22.3781C15.986 22.4169 16.2487 22.3814 16.4861 22.2758C16.7235 22.1702 16.9258 21.9989 17.069 21.7821L17.777 20.7081C17.958 20.4321 18.234 20.2321 18.552 20.1451L19.792 19.8031C20.0428 19.7343 20.2686 19.595 20.4426 19.4018C20.6167 19.2086 20.7317 18.9696 20.774 18.7131L20.984 17.4441C21.0377 17.1184 21.2079 16.8234 21.463 16.6141L22.457 15.7981C22.658 15.6331 22.8074 15.4141 22.8877 15.1669C22.968 14.9196 22.9757 14.6546 22.91 14.4031L22.586 13.1581C22.5026 12.8388 22.5382 12.5001 22.686 12.2051L23.262 11.0551Z" fill="white"/>
</mask>
<g mask="url(#mask1_1_463)">
<path d="M9.12926 17V16.0412L12.7301 12.0994C13.1527 11.6378 13.5007 11.2365 13.7741 10.8956C14.0476 10.5511 14.25 10.228 14.3814 9.92614C14.5163 9.62074 14.5838 9.30114 14.5838 8.96733C14.5838 8.58381 14.4915 8.25178 14.3068 7.97124C14.1257 7.6907 13.8771 7.47408 13.5611 7.32138C13.245 7.16868 12.8899 7.09233 12.4957 7.09233C12.0767 7.09233 11.7109 7.17933 11.3984 7.35334C11.0895 7.52379 10.8498 7.76349 10.6793 8.07244C10.5124 8.38139 10.429 8.74361 10.429 9.15909H9.17188C9.17188 8.51989 9.31925 7.95881 9.61399 7.47585C9.90874 6.9929 10.31 6.61648 10.8178 6.34659C11.3292 6.0767 11.9027 5.94176 12.5384 5.94176C13.1776 5.94176 13.744 6.0767 14.2376 6.34659C14.7312 6.61648 15.1183 6.98047 15.3988 7.43857C15.6793 7.89666 15.8196 8.40625 15.8196 8.96733C15.8196 9.36861 15.7468 9.76101 15.6012 10.1445C15.4592 10.5245 15.2106 10.9489 14.8555 11.4176C14.5039 11.8828 14.0156 12.451 13.3906 13.1222L10.9403 15.7429V15.8281H16.0114V17H9.12926Z" fill="#333333"/>
</g>
</g>
</g>
</g>
<defs>
<clipPath id="clip0_1_463">
<rect width="24" height="32" fill="white"/>
</clipPath>
<clipPath id="clip1_1_463">
<rect width="24" height="32" fill="white"/>
</clipPath>
<clipPath id="clip2_1_463">
<rect width="24" height="32" fill="white"/>
</clipPath>
</defs>
</svg>
