<svg width="16" height="16" viewBox="0 0 16 16" fill="none" xmlns="http://www.w3.org/2000/svg">
<path d="M10.5 4C10.5 4.66304 10.2366 5.29893 9.76777 5.76777C9.29893 6.23661 8.66305 6.5 8 6.5C7.33696 6.5 6.70108 6.23661 6.23224 5.76777C5.7634 5.29893 5.5 4.66304 5.5 4C5.5 3.33696 5.7634 2.70107 6.23224 2.23223C6.70108 1.76339 7.33696 1.5 8 1.5C8.66305 1.5 9.29893 1.76339 9.76777 2.23223C10.2366 2.70107 10.5 3.33696 10.5 4ZM3.00067 13.412C3.02209 12.1002 3.55823 10.8494 4.49346 9.92936C5.42868 9.00929 6.68806 8.49365 8 8.49365C9.31195 8.49365 10.5713 9.00929 11.5066 9.92936C12.4418 10.8494 12.9779 12.1002 12.9993 13.412C11.4309 14.1312 9.72544 14.5023 8 14.5C6.216 14.5 4.52267 14.1107 3.00067 13.412Z" stroke="#2B2B2B" stroke-linecap="round" stroke-linejoin="round"/>
</svg>
